<svg xmlns="http://www.w3.org/2000/svg" width="22" height="21" viewBox="0 0 22 21"><title>signature  icon</title><g fill="none" class="nc-icon-wrapper"><mask id="jMIJCua" width="20" height="19" x="1" y="1" maskUnits="userSpaceOnUse"><path fill="#fff" fill-rule="evenodd" d="M1 16.197c0 .44.058.55.378.73a.719.719 0 0 0 .296.073c.367 0 .541-.115.907-.628l.196-.264c.184-.248.402-.543.56-.751l.401-.526.419.212c.872.429 1.767.483 2.79.175.873-.26 1.954-.906 2.477-1.486l.262-.278.29.157c.379.206 1.082.248 1.588.097.825-.242 1.924-1.202 2.965-2.58l.28-.368.034.78c.035.87.076 1.02.343 1.25.233.205.395.247.785.205.605-.066 1.035-.387 1.79-1.341 1.041-1.31 1.605-1.746 2.367-1.818.634-.067.872-.296.872-.846 0-.344-.14-.598-.401-.725-.157-.078-.302-.09-.68-.066-1.076.078-1.989.676-3.14 2.047l-.285.345v-.767c0-.647-.017-.804-.116-1.003-.175-.356-.489-.592-.832-.628-.616-.06-.912.18-2.232 1.812-.93 1.148-1.535 1.764-1.925 1.97-.32.162-.563.223-.563.138 0-.036.22-.314.494-.622 1.145-1.287 2.064-3.437 2.064-4.827 0-1.564-1.582-2.192-3.012-1.202C9.291 6.217 8.517 7.8 8.384 9.54c-.053.73.006 1.293.209 1.927.18.561.163.616-.308 1.063a5.295 5.295 0 0 1-1.686 1.039c-.419.15-.57.175-.913.157-.238-.012-.517-.073-.663-.145l-.25-.115.244-.302c.878-1.1 2.262-3.612 2.867-5.225.645-1.728.953-3.48.802-4.591-.169-1.232-.884-2.066-1.988-2.301-.448-.097-1.233-.037-1.64.12C3.802 1.67 2.46 3.21 1.785 4.925c-.477 1.232-.669 2.223-.71 3.75-.034 1.24.035 1.873.315 2.768.215.706.703 1.685.976 1.957l.239.241-.803 1.07L1 15.78v.417zm3.593-5.346c-.25.416-.564.906-.692 1.087l-.068.089c-.106.14-.197.26-.217.28-.064.072-.546-.949-.72-1.517-.582-1.92-.123-4.76 1.034-6.44.506-.73 1.378-1.467 1.971-1.666.5-.164 1.006.126 1.146.67.104.393.034 1.468-.14 2.199-.39 1.63-1.105 3.274-2.314 5.298zm7.163-3.933c0 .363-.308 1.25-.715 2.072-.419.84-.995 1.577-1.053 1.347-.122-.483.1-1.697.448-2.428.21-.447.558-.87.872-1.057.401-.242.448-.236.448.066zM1 18v2h20v-2H1z" clip-rule="evenodd"/></mask><g mask="url(#jMIJCua)"><path fill="#000" d="M0 0h22v21H0z"/></g></g></svg>